<?xml version="1.0" encoding="UTF-8"?>
<svg width="18px" height="21px" viewBox="0 0 18 21" version="1.1" xmlns="http://www.w3.org/2000/svg" xmlns:xlink="http://www.w3.org/1999/xlink">
    <title>01019B20-81D6-477A-BC68-4938096D0E15</title>
    <g id="2.Shopping" stroke="none" stroke-width="1" fill="none" fill-rule="evenodd">
        <g id="WEB-0.Home2_After-Login-2" transform="translate(-1324.000000, -54.000000)" stroke="#838694" stroke-width="1.5">
            <g id="main-header" transform="translate(1.000000, 30.000000)">
                <g id="cart" transform="translate(1324.000000, 25.000000)">
                    <path d="M0.715271523,3.51648575 L15.3152715,4.63457122 C15.4194997,4.64255314 15.5,4.72945392 15.5,4.83398732 L15.5,18.1660127 C15.5,18.2705461 15.4194997,18.3574469 15.3152715,18.3654288 L0.715271523,19.4835142 C0.605137053,19.4919485 0.50901813,19.4095041 0.500583901,19.2993697 C0.500194776,19.2942885 0.5,19.2891942 0.5,19.2840982 L0.5,3.71590185 C0.5,3.6054449 0.58954305,3.51590185 0.7,3.51590185 C0.705096088,3.51590185 0.710190314,3.51609663 0.715271523,3.51648575 Z" id="Rectangle" transform="translate(8.000000, 11.500000) rotate(-90.000000) translate(-8.000000, -11.500000) "></path>
                    <path d="M4.5,1.5 L9.5,1.5 C10.6045695,1.5 11.5,2.3954305 11.5,3.5 L11.5,4.5 C11.5,5.6045695 10.6045695,6.5 9.5,6.5 L4.5,6.5 L4.5,6.5" id="Rectangle" transform="translate(8.000000, 4.000000) rotate(-90.000000) translate(-8.000000, -4.000000) "></path>
                </g>
            </g>
        </g>
    </g>
</svg>