<?xml version="1.0" encoding="UTF-8"?>
<svg width="18px" height="20px" viewBox="0 0 18 20" version="1.1" xmlns="http://www.w3.org/2000/svg" xmlns:xlink="http://www.w3.org/1999/xlink">
    <title>10ED1042-5C9D-466B-9C99-9066B34C1B1F</title>
    <g id="2.Shopping" stroke="none" stroke-width="1" fill="none" fill-rule="evenodd">
        <g id="WEB-2.Shopping6_Readymade4" transform="translate(-1392.000000, -126.000000)" stroke="#838694" stroke-width="1.65">
            <g id="cart" transform="translate(1169.000000, 100.000000)">
                <g id="Group-13" transform="translate(30.000000, 25.000000)">
                    <g id="delete" transform="translate(194.000000, 2.000000)">
                        <path d="M1.6,3.2 L14.4,3.2 L14.4,15.6 C14.4,16.7045695 13.5045695,17.6 12.4,17.6 L3.6,17.6 C2.4954305,17.6 1.6,16.7045695 1.6,15.6 L1.6,3.2 L1.6,3.2 Z" id="Rectangle"></path>
                        <rect id="Rectangle" transform="translate(8.000000, 1.600000) scale(-1, 1) rotate(-180.000000) translate(-8.000000, -1.600000) " x="4.8" y="0" width="6.4" height="3.2" rx="1.6"></rect>
                        <g id="Group-27" stroke-linecap="round" transform="translate(4.400000, 7.000000)">
                            <line x1="0.450752689" y1="2.18162022" x2="0.450752689" y2="4.58162022" id="Path"></line>
                            <line x1="3.65075269" y1="0.981620222" x2="3.65075269" y2="5.78162022" id="Path-Copy"></line>
                            <line x1="6.85075269" y1="2.18162022" x2="6.85075269" y2="4.58162022" id="Path-Copy"></line>
                        </g>
                        <line x1="8" y1="-4.8" x2="8" y2="11.2" id="Path" stroke-linecap="round" transform="translate(8.000000, 3.200000) rotate(90.000000) translate(-8.000000, -3.200000) "></line>
                    </g>
                </g>
            </g>
        </g>
    </g>
</svg>