<?xml version="1.0" encoding="UTF-8"?>
<svg width="19px" height="19px" viewBox="0 0 19 19" version="1.1" xmlns="http://www.w3.org/2000/svg" xmlns:xlink="http://www.w3.org/1999/xlink">
    <title>143B5A6F-2827-47BC-8BF0-248FA50D98D9</title>
    <g id="0.Homepage" stroke="none" stroke-width="1" fill="none" fill-rule="evenodd">
        <g id="WEB-0.Home1_Before-Login-1" transform="translate(-205.000000, -866.000000)" stroke="#EE7E23" stroke-width="1.5">
            <g id="section-2" transform="translate(0.000000, 830.000000)">
                <g id="Group-6" transform="translate(205.000000, 30.000000)">
                    <g id="love" transform="translate(0.000000, 6.053931)">
                        <path d="M13.2318399,0.987714522 C14.6058247,0.987714522 15.8490677,1.53049557 16.7486631,2.40957505 C17.6430643,3.2835787 18.1973684,4.49046877 18.1973684,5.82289581 C18.1973684,6.85679093 17.8641319,7.83984121 17.2547301,8.65768742 C16.9571493,9.0298857 16.7707859,9.22546906 16.562461,9.40900621 L16.562461,9.40900621 L9.46650574,16.8406346 L1.91054388,9.02228972 C1.12773616,7.945503 0.75,6.9148005 0.75,5.82289581 C0.75,4.49046877 1.30430408,3.2835787 2.19870527,2.40957504 C3.09830074,1.53049557 4.34154367,0.987714522 5.7155285,0.987714522 C6.52959131,0.987714522 7.38904072,1.60482001 8.28055407,2.58737988 L8.28055407,2.58737988 L9.47396998,3.90267438 L10.6672202,2.5872296 C11.5583638,1.60482875 12.417796,0.987714522 13.2318399,0.987714522 Z" id="Combined-Shape-Copy"></path>
                    </g>
                </g>
            </g>
        </g>
    </g>
</svg>