<?xml version="1.0" encoding="UTF-8"?>
<svg width="14px" height="15px" viewBox="0 0 14 15" version="1.1" xmlns="http://www.w3.org/2000/svg" xmlns:xlink="http://www.w3.org/1999/xlink">
    <title>5B55FAF2-E3F1-4ED7-B544-C43CB873D414</title>
    <g id="0.Homepage" stroke="none" stroke-width="1" fill="none" fill-rule="evenodd">
        <g id="WEB-0.Home1_Before-Login-2" transform="translate(-130.000000, -4466.000000)" fill="#838694">
            <g id="footer" transform="translate(0.000000, 4327.000000)">
                <g id="logo" transform="translate(130.000000, 50.000000)">
                    <path d="M13.4913277,90.1730525 L10.6475747,89.5168838 C10.3382072,89.4454892 10.0219764,89.6058058 9.89682391,89.89781 L8.58432254,92.9602312 C8.46914809,93.2289771 8.54565978,93.541502 8.77195554,93.7266499 L10.4294534,95.082792 C9.44581562,97.1793762 7.72411461,98.9248116 5.58279596,99.929422 L4.22665392,98.2719516 C4.04150599,98.0456558 3.72898108,97.9691441 3.46023515,98.0843186 L0.397813977,99.3968199 C0.105891797,99.5219177 -0.0545341525,99.8381212 0.0168877972,100.147571 L0.673056452,102.991324 C0.741251836,103.286828 1.00481852,103.5 1.31249071,103.5 C8.31487694,103.5 14,97.8252909 14,90.8124867 C14,90.5068927 13.7890741,90.24174 13.4913277,90.1730525 Z" id="phone" transform="translate(7.000002, 96.500000) scale(-1, 1) translate(-7.000002, -96.500000) "></path>
                </g>
            </g>
        </g>
    </g>
</svg>