<?xml version="1.0" encoding="UTF-8"?>
<svg width="16px" height="21px" viewBox="0 0 16 21" version="1.1" xmlns="http://www.w3.org/2000/svg" xmlns:xlink="http://www.w3.org/1999/xlink">
    <title>8F5F9137-0A1E-4A0F-9DD0-6A68080C483C</title>
    <g id="0.Homepage" stroke="none" stroke-width="1" fill="none" fill-rule="evenodd">
        <g id="WEB-0.Home1_Before-Login-1" transform="translate(-578.000000, -865.000000)" fill="#EE7E23" fill-rule="nonzero">
            <g id="section-2" transform="translate(0.000000, 830.000000)">
                <g id="Group-6" transform="translate(205.000000, 30.000000)">
                    <g id="Group-5" transform="translate(373.000000, 0.000000)">
                        <g id="scissors" transform="translate(0.000000, 5.990970)">
                            <path d="M3.2,20 C1.4326888,20 0,18.5673112 0,16.8 C0,15.0326888 1.4326888,13.6 3.2,13.6 C4.9673112,13.6 6.4,15.0326888 6.4,16.8 C6.4,18.5673112 4.9673112,20 3.2,20 Z M3.2,15.2 C2.3163444,15.2 1.6,15.9163444 1.6,16.8 C1.6,17.6836556 2.3163444,18.4 3.2,18.4 C4.0836556,18.4 4.8,17.6836556 4.8,16.8 C4.8,15.9163444 4.0836556,15.2 3.2,15.2 Z" id="Shape"></path>
                            <path d="M5.6,17.6 C5.48080538,17.5992936 5.36327495,17.571961 5.256,17.52 C4.85925926,17.3292019 4.6912278,16.8537086 4.88,16.456 L12.08,1.256 C12.1894771,0.977251969 12.4454724,0.782992255 12.7434004,0.752584621 C13.0413284,0.722176987 13.3312902,0.860714295 13.4948235,1.11159787 C13.6583568,1.36248145 13.668072,1.68369174 13.52,1.944 L6.32,17.144 C6.18767785,17.421827 5.90772755,17.5991289 5.6,17.6 Z" id="Path"></path>
                            <path d="M12.8,20 C11.0326888,20 9.6,18.5673112 9.6,16.8 C9.6,15.0326888 11.0326888,13.6 12.8,13.6 C14.5673112,13.6 16,15.0326888 16,16.8 C16,18.5673112 14.5673112,20 12.8,20 Z M12.8,15.2 C11.9163444,15.2 11.2,15.9163444 11.2,16.8 C11.2,17.6836556 11.9163444,18.4 12.8,18.4 C13.6836556,18.4 14.4,17.6836556 14.4,16.8 C14.4,15.9163444 13.6836556,15.2 12.8,15.2 Z" id="Shape"></path>
                            <path d="M10.4,17.6 C10.0922724,17.5991289 9.81232215,17.421827 9.68,17.144 L2.48,1.944 C2.32658825,1.55338668 2.50108864,1.11062228 2.87974883,0.929706852 C3.25840902,0.748791428 3.71250475,0.891226574 3.92,1.256 L11.12,16.456 C11.3087722,16.8537086 11.1407407,17.3292019 10.744,17.52 C10.6367251,17.571961 10.5191946,17.5992936 10.4,17.6 Z" id="Path"></path>
                        </g>
                    </g>
                </g>
            </g>
        </g>
    </g>
</svg>